<svg xmlns="http://www.w3.org/2000/svg" xmlns:xlink="http://www.w3.org/1999/xlink" zoomAndPan="magnify" preserveAspectRatio="xMidYMid meet" version="1.0" viewBox="77.35 60.77 220.51 213.32"><defs><g/><clipPath id="c9421ae4b7"><path d="M 117.550781 60.769531 L 171 60.769531 L 171 211 L 117.550781 211 Z M 117.550781 60.769531 " clip-rule="nonzero"/></clipPath><clipPath id="921ce07838"><path d="M 178 90 L 232 90 L 232 240.019531 L 178 240.019531 Z M 178 90 " clip-rule="nonzero"/></clipPath><clipPath id="4c3f58523c"><path d="M 249 66 L 259.300781 66 L 259.300781 76 L 249 76 Z M 249 66 " clip-rule="nonzero"/></clipPath></defs><g clip-path="url(#c9421ae4b7)"><path fill="#393536" d="M 117.59375 145.132812 L 117.59375 126.402344 C 121.378906 126.195312 124.230469 125.625 126.148438 124.6875 C 128.0625 123.75 129.722656 122.179688 131.121094 119.964844 C 132.523438 117.753906 133.480469 114.984375 134 111.65625 C 134.414062 109.15625 134.621094 104.8125 134.621094 98.621094 C 134.621094 88.53125 135.085938 81.492188 136.019531 77.515625 C 136.953125 73.535156 138.636719 70.335938 141.074219 67.914062 C 143.507812 65.496094 147.058594 63.585938 151.726562 62.179688 C 154.886719 61.242188 159.863281 60.777344 166.652344 60.777344 L 170.773438 60.777344 L 170.773438 79.425781 C 165.019531 79.425781 161.328125 79.753906 159.695312 80.402344 C 158.0625 81.054688 156.855469 82.039062 156.078125 83.367188 C 155.300781 84.691406 154.914062 86.96875 154.914062 90.195312 C 154.914062 93.472656 154.679688 99.691406 154.210938 108.84375 C 153.953125 113.996094 153.28125 118.171875 152.191406 121.371094 C 151.101562 124.570312 149.714844 127.210938 148.03125 129.289062 C 146.347656 131.371094 143.769531 133.53125 140.296875 135.769531 C 143.355469 137.539062 145.855469 139.605469 147.800781 141.972656 C 149.742188 144.339844 151.230469 147.210938 152.269531 150.59375 C 153.304688 153.976562 153.980469 158.503906 154.289062 164.171875 C 154.652344 172.808594 154.835938 178.324219 154.835938 180.714844 C 154.835938 184.148438 155.25 186.542969 156.078125 187.894531 C 156.90625 189.246094 158.164062 190.277344 159.851562 190.976562 C 161.53125 191.679688 165.175781 192.03125 170.773438 192.03125 L 170.773438 210.757812 L 166.652344 210.757812 C 159.65625 210.757812 154.289062 210.199219 150.558594 209.082031 C 146.828125 207.964844 143.679688 206.101562 141.113281 203.503906 C 138.546875 200.898438 136.824219 197.6875 135.941406 193.863281 C 135.0625 190.039062 134.621094 184.019531 134.621094 175.800781 C 134.621094 166.230469 134.207031 160.011719 133.378906 157.148438 C 132.238281 152.988281 130.511719 150.007812 128.207031 148.214844 C 125.898438 146.417969 122.363281 145.390625 117.59375 145.132812 " fill-opacity="1" fill-rule="nonzero"/></g><path fill="#eeb30d" d="M 235.542969 99.628906 L 223.375 99.628906 L 223.375 87.414062 L 235.542969 87.414062 L 235.542969 99.628906 " fill-opacity="1" fill-rule="nonzero"/><path fill="#eeb30d" d="M 232.671875 124.054688 L 223.375 124.054688 L 223.375 114.722656 L 232.671875 114.722656 L 232.671875 124.054688 " fill-opacity="1" fill-rule="nonzero"/><g clip-path="url(#921ce07838)"><path fill="#eeb30d" d="M 197.269531 108.960938 L 197.269531 99.628906 L 206.566406 99.628906 L 206.566406 108.960938 Z M 220.917969 152.589844 C 218.585938 150.792969 216.851562 147.816406 215.710938 143.65625 C 215.082031 141.308594 214.710938 136.808594 214.589844 130.164062 L 206.566406 130.164062 L 206.566406 117.949219 L 214.410156 117.949219 C 214.214844 113.238281 213.808594 109.570312 213.183594 106.9375 C 212.277344 103.117188 210.550781 99.890625 208.011719 97.261719 C 205.472656 94.636719 202.339844 92.777344 198.605469 91.683594 C 194.875 90.589844 189.511719 90.046875 182.511719 90.046875 L 178.394531 90.046875 L 178.394531 108.695312 C 184.25 108.695312 188.019531 109.046875 189.703125 109.746094 C 191.386719 110.449219 192.554688 111.453125 193.203125 112.753906 C 193.851562 114.054688 194.199219 116.652344 194.253906 120.554688 C 194.511719 132.9375 194.925781 140.949219 195.496094 144.589844 C 196.375 149.898438 198.035156 154.265625 200.472656 157.699219 C 202.234375 160.09375 205.03125 162.539062 208.871094 165.035156 C 205.914062 166.753906 203.488281 168.742188 201.597656 171.007812 C 199.707031 173.269531 198.191406 176.027344 197.050781 179.277344 C 195.910156 182.527344 195.210938 186.859375 194.953125 192.269531 C 194.535156 201.21875 194.316406 207.277344 194.292969 210.453125 C 194.265625 213.625 193.851562 215.875 193.046875 217.203125 C 192.242188 218.53125 190.988281 219.542969 189.277344 220.246094 C 187.566406 220.949219 183.9375 221.300781 178.394531 221.300781 L 178.394531 240.027344 L 182.511719 240.027344 C 189.300781 240.027344 194.277344 239.558594 197.4375 238.625 C 202.15625 237.21875 205.730469 235.308594 208.171875 232.886719 C 210.605469 230.46875 212.277344 227.257812 213.183594 223.25 C 214.089844 219.242188 214.542969 212.195312 214.542969 202.101562 C 214.542969 195.964844 214.75 191.648438 215.164062 189.148438 C 215.734375 185.820312 216.707031 183.050781 218.082031 180.839844 C 219.453125 178.628906 221.101562 177.054688 223.019531 176.117188 C 224.933594 175.179688 227.789062 174.609375 231.570312 174.402344 L 231.570312 155.671875 C 226.800781 155.410156 223.25 154.382812 220.917969 152.589844 " fill-opacity="1" fill-rule="nonzero"/></g><g clip-path="url(#4c3f58523c)"><path fill="#eeb30d" d="M 259.269531 75.90625 L 249.972656 75.90625 L 249.972656 66.574219 L 259.269531 66.574219 L 259.269531 75.90625 " fill-opacity="1" fill-rule="nonzero"/></g><path fill="#eeb30d" d="M 212.652344 87.414062 L 195.296875 87.414062 L 195.296875 69.996094 L 212.652344 69.996094 L 212.652344 87.414062 " fill-opacity="1" fill-rule="nonzero"/><g fill="#393536" fill-opacity="1"><g transform="translate(76.066537, 273.700955)"><g><path d="M 4.1875 -23.71875 L 1.28125 -24.171875 L 1.28125 -26.375 L 20.875 -26.375 L 21.234375 -19.953125 L 18.390625 -19.953125 L 17.078125 -23.859375 L 9.40625 -24.25 L 9.40625 -14.203125 L 14.703125 -14.3125 L 15.375 -17.4375 L 17.640625 -17.4375 L 17.640625 -8.40625 L 15.40625 -8.40625 L 14.703125 -11.609375 L 9.40625 -11.75 L 9.40625 -2.484375 L 14.84375 -2.125 L 14.84375 0 L 1.453125 0 L 1.453125 -2.125 L 4.1875 -2.484375 Z M 4.1875 -23.71875 "/></g></g></g><g fill="#393536" fill-opacity="1"><g transform="translate(104.783284, 273.700955)"><g><path d="M 5.828125 -22.96875 C 4.972656 -22.96875 4.296875 -23.210938 3.796875 -23.703125 C 3.296875 -24.203125 3.046875 -24.84375 3.046875 -25.625 C 3.046875 -26.53125 3.328125 -27.273438 3.890625 -27.859375 C 4.460938 -28.453125 5.222656 -28.75 6.171875 -28.75 C 7.117188 -28.75 7.84375 -28.492188 8.34375 -27.984375 C 8.84375 -27.484375 9.09375 -26.851562 9.09375 -26.09375 C 9.09375 -25.144531 8.804688 -24.382812 8.234375 -23.8125 C 7.671875 -23.25 6.878906 -22.96875 5.859375 -22.96875 Z M 3.9375 -16.359375 L 1.421875 -17.046875 L 1.421875 -19.421875 L 7.921875 -20.203125 L 7.984375 -20.203125 L 8.984375 -19.484375 L 8.984375 -2.40625 L 11.359375 -2.125 L 11.359375 0 L 1.453125 0 L 1.453125 -2.125 L 3.9375 -2.453125 Z M 3.9375 -16.359375 "/></g></g></g><g fill="#393536" fill-opacity="1"><g transform="translate(123.738587, 273.700955)"><g><path d="M 5.5 -17.1875 L 4.6875 -13.703125 L 2.125 -13.703125 L 2.125 -19.734375 L 17.78125 -19.734375 L 18.609375 -17.890625 L 9.15625 -4.796875 L 6.671875 -2.234375 L 14.625 -2.625 L 16.328125 -6.703125 L 18.75 -6.421875 L 18.171875 0 L 1.703125 0 L 0.8125 -1.953125 L 10.515625 -14.765625 L 13.0625 -17.4375 Z M 5.5 -17.1875 "/></g></g></g><g fill="#393536" fill-opacity="1"><g transform="translate(150.183575, 273.700955)"><g><path d="M 5.5 -17.1875 L 4.6875 -13.703125 L 2.125 -13.703125 L 2.125 -19.734375 L 17.78125 -19.734375 L 18.609375 -17.890625 L 9.15625 -4.796875 L 6.671875 -2.234375 L 14.625 -2.625 L 16.328125 -6.703125 L 18.75 -6.421875 L 18.171875 0 L 1.703125 0 L 0.8125 -1.953125 L 10.515625 -14.765625 L 13.0625 -17.4375 Z M 5.5 -17.1875 "/></g></g></g><g fill="#393536" fill-opacity="1"><g transform="translate(176.62857, 273.700955)"><g/></g></g><g fill="#393536" fill-opacity="1"><g transform="translate(191.6793, 273.700955)"><g><path d="M 4.1875 -23.71875 L 1.421875 -24.171875 L 1.421875 -26.375 L 6.703125 -26.375 C 7.515625 -26.375 8.554688 -26.421875 9.828125 -26.515625 C 10.140625 -26.535156 10.507812 -26.554688 10.9375 -26.578125 C 11.363281 -26.609375 11.859375 -26.625 12.421875 -26.625 C 15.992188 -26.625 18.492188 -26.117188 19.921875 -25.109375 C 21.359375 -24.109375 22.078125 -22.613281 22.078125 -20.625 C 22.078125 -18.875 21.550781 -17.410156 20.5 -16.234375 C 19.445312 -15.066406 18.066406 -14.351562 16.359375 -14.09375 C 18.703125 -14.113281 20.539062 -13.578125 21.875 -12.484375 C 23.21875 -11.398438 23.890625 -9.890625 23.890625 -7.953125 C 23.890625 -5.492188 23.023438 -3.515625 21.296875 -2.015625 C 19.566406 -0.523438 16.679688 0.21875 12.640625 0.21875 C 11.578125 0.21875 10.59375 0.179688 9.6875 0.109375 C 9.457031 0.109375 9.054688 0.0859375 8.484375 0.046875 C 7.910156 0.015625 7.332031 0 6.75 0 L 1.390625 0 L 1.390625 -2.125 L 4.1875 -2.484375 Z M 9.34375 -14.875 C 9.601562 -14.851562 10.132812 -14.84375 10.9375 -14.84375 L 12.609375 -14.84375 C 14.046875 -14.84375 15.117188 -15.289062 15.828125 -16.1875 C 16.535156 -17.082031 16.890625 -18.347656 16.890625 -19.984375 C 16.890625 -21.546875 16.523438 -22.679688 15.796875 -23.390625 C 15.066406 -24.097656 13.847656 -24.453125 12.140625 -24.453125 C 11.691406 -24.453125 10.757812 -24.40625 9.34375 -24.3125 Z M 9.34375 -2.34375 C 9.882812 -2.132812 10.921875 -2.03125 12.453125 -2.03125 C 14.472656 -2.03125 15.929688 -2.5 16.828125 -3.4375 C 17.722656 -4.382812 18.171875 -5.757812 18.171875 -7.5625 C 18.171875 -9.289062 17.757812 -10.523438 16.9375 -11.265625 C 16.125 -12.015625 14.832031 -12.390625 13.0625 -12.390625 C 11.070312 -12.390625 9.832031 -12.363281 9.34375 -12.3125 Z M 9.34375 -2.34375 "/></g></g></g><g fill="#393536" fill-opacity="1"><g transform="translate(223.342239, 273.700955)"><g><path d="M 17.609375 0.359375 C 16.828125 0.359375 16.257812 0.191406 15.90625 -0.140625 C 15.550781 -0.472656 15.375 -0.972656 15.375 -1.640625 L 15.375 -2.59375 C 14.726562 -1.8125 13.828125 -1.117188 12.671875 -0.515625 C 11.515625 0.0859375 10.351562 0.390625 9.1875 0.390625 C 6.914062 0.390625 5.296875 -0.191406 4.328125 -1.359375 C 3.359375 -2.535156 2.875 -4.472656 2.875 -7.171875 L 2.875 -17.1875 L 1.09375 -17.671875 L 1.09375 -19.703125 L 7.140625 -20.15625 L 7.171875 -20.15625 L 7.875 -19.671875 L 7.875 -7.171875 C 7.875 -5.441406 8.085938 -4.234375 8.515625 -3.546875 C 8.941406 -2.859375 9.738281 -2.515625 10.90625 -2.515625 C 12.300781 -2.515625 13.597656 -3.0625 14.796875 -4.15625 L 14.796875 -17.1875 L 12.421875 -17.71875 L 12.421875 -19.703125 L 18.84375 -20.15625 L 18.921875 -20.15625 L 19.78125 -19.671875 L 19.78125 -2.203125 L 21.765625 -2.203125 L 21.71875 -0.171875 C 21.625 -0.148438 21.1875 -0.0546875 20.40625 0.109375 C 19.625 0.273438 18.691406 0.359375 17.609375 0.359375 Z M 17.609375 0.359375 "/></g></g></g><g fill="#393536" fill-opacity="1"><g transform="translate(252.662424, 273.700955)"><g><path d="M 5.5 -17.1875 L 4.6875 -13.703125 L 2.125 -13.703125 L 2.125 -19.734375 L 17.78125 -19.734375 L 18.609375 -17.890625 L 9.15625 -4.796875 L 6.671875 -2.234375 L 14.625 -2.625 L 16.328125 -6.703125 L 18.75 -6.421875 L 18.171875 0 L 1.703125 0 L 0.8125 -1.953125 L 10.515625 -14.765625 L 13.0625 -17.4375 Z M 5.5 -17.1875 "/></g></g></g><g fill="#393536" fill-opacity="1"><g transform="translate(279.107418, 273.700955)"><g><path d="M 5.5 -17.1875 L 4.6875 -13.703125 L 2.125 -13.703125 L 2.125 -19.734375 L 17.78125 -19.734375 L 18.609375 -17.890625 L 9.15625 -4.796875 L 6.671875 -2.234375 L 14.625 -2.625 L 16.328125 -6.703125 L 18.75 -6.421875 L 18.171875 0 L 1.703125 0 L 0.8125 -1.953125 L 10.515625 -14.765625 L 13.0625 -17.4375 Z M 5.5 -17.1875 "/></g></g></g></svg>